<svg width="21" height="20" viewBox="0 0 21 20" fill="none" xmlns="http://www.w3.org/2000/svg">
<path d="M20.5654 9.83614L11.0239 0.21903C10.9552 0.149598 10.8736 0.0945134 10.7838 0.0569295C10.694 0.0193456 10.5977 0 10.5004 0C10.4032 0 10.3069 0.0193456 10.2171 0.0569295C10.1272 0.0945134 10.0456 0.149598 9.97692 0.21903L0.435491 9.83614C0.157518 10.1165 0 10.4974 0 10.8946C0 11.7194 0.664819 12.39 1.48252 12.39H2.48786V19.2523C2.48786 19.6659 2.81911 20 3.22912 20H9.01791V14.7662H11.6123V20H17.7717C18.1818 20 18.513 19.6659 18.513 19.2523V12.39H19.5183C19.9121 12.39 20.2897 12.2334 20.5677 11.9507C21.1445 11.3666 21.1445 10.4203 20.5654 9.83614Z" fill="#194C85"/>
</svg>
