<svg width="22" height="18" viewBox="0 0 22 18" fill="none" xmlns="http://www.w3.org/2000/svg">
<path d="M19.8 0H2.2C0.99 0 0 1.0125 0 2.25V15.75C0 16.9875 0.99 18 2.2 18H19.8C21.01 18 22 16.9875 22 15.75V2.25C22 1.0125 21.01 0 19.8 0ZM19.36 4.78125L12.166 9.3825C11.451 9.84375 10.549 9.84375 9.834 9.3825L2.64 4.78125C2.5297 4.71793 2.43311 4.63237 2.35608 4.52976C2.27904 4.42715 2.22317 4.30963 2.19183 4.18429C2.1605 4.05896 2.15435 3.92843 2.17377 3.8006C2.19319 3.67276 2.23777 3.55029 2.30481 3.44059C2.37185 3.33089 2.45996 3.23624 2.5638 3.16237C2.66764 3.0885 2.78506 3.03695 2.90895 3.01084C3.03283 2.98472 3.16061 2.98459 3.28455 3.01044C3.40849 3.0363 3.52601 3.0876 3.63 3.16125L11 7.875L18.37 3.16125C18.474 3.0876 18.5915 3.0363 18.7155 3.01044C18.8394 2.98459 18.9672 2.98472 19.0911 3.01084C19.2149 3.03695 19.3324 3.0885 19.4362 3.16237C19.54 3.23624 19.6282 3.33089 19.6952 3.44059C19.7622 3.55029 19.8068 3.67276 19.8262 3.8006C19.8456 3.92843 19.8395 4.05896 19.8082 4.18429C19.7768 4.30963 19.721 4.42715 19.6439 4.52976C19.5669 4.63237 19.4703 4.71793 19.36 4.78125Z" fill="#67C1C2"/>
</svg>
