<svg width="19" height="19" viewBox="0 0 19 19" fill="none" xmlns="http://www.w3.org/2000/svg">
<path d="M5.707 17.7066L15 8.41364L10.586 3.99964L1.293 13.2926C1.16506 13.4207 1.07418 13.5811 1.03 13.7566L0 18.9996L5.242 17.9696C5.418 17.9256 5.579 17.8346 5.707 17.7066ZM18 5.41364C18.3749 5.03858 18.5856 4.52996 18.5856 3.99964C18.5856 3.46931 18.3749 2.96069 18 2.58564L16.414 0.999635C16.0389 0.624693 15.5303 0.414062 15 0.414062C14.4697 0.414062 13.9611 0.624693 13.586 0.999635L12 2.58564L16.414 6.99964L18 5.41364Z" fill="#67C1C2"/>
</svg>
