<svg width="17" height="17" viewBox="0 0 17 17" fill="none" xmlns="http://www.w3.org/2000/svg">
<path d="M16.3331 13.8734C15.9066 12.9191 15.2878 12.0523 14.511 11.3212C13.7366 10.5881 12.8192 10.0035 11.8096 9.59987C11.8005 9.5956 11.7915 9.59347 11.7824 9.5892C13.1908 8.62814 14.1063 7.06269 14.1063 5.29648C14.1063 2.3706 11.5971 0 8.5 0C5.40295 0 2.89365 2.3706 2.89365 5.29648C2.89365 7.06269 3.80921 8.62814 5.21758 9.59133C5.20853 9.5956 5.19949 9.59774 5.19045 9.60201C4.17769 10.0057 3.26892 10.5844 2.489 11.3234C1.71295 12.055 1.09421 12.9216 0.66694 13.8755C0.247193 14.8093 0.0208134 15.8105 5.65291e-05 16.8249C-0.000546843 16.8477 0.00368511 16.8703 0.0125031 16.8916C0.0213212 16.9128 0.0345468 16.9321 0.0514007 16.9485C0.0682546 16.9648 0.0883959 16.9777 0.110638 16.9866C0.132879 16.9955 0.156772 17 0.180906 17H1.53728C1.63675 17 1.71587 16.9253 1.71813 16.8334C1.76334 15.1847 2.46414 13.6406 3.70296 12.4702C4.98473 11.2593 6.68698 10.593 8.5 10.593C10.313 10.593 12.0153 11.2593 13.297 12.4702C14.5359 13.6406 15.2367 15.1847 15.2819 16.8334C15.2841 16.9274 15.3633 17 15.4627 17H16.8191C16.8432 17 16.8671 16.9955 16.8894 16.9866C16.9116 16.9777 16.9317 16.9648 16.9486 16.9485C16.9655 16.9321 16.9787 16.9128 16.9875 16.8916C16.9963 16.8703 17.0005 16.8477 16.9999 16.8249C16.9773 15.804 16.7535 14.8109 16.3331 13.8734ZM8.5 8.96985C7.46237 8.96985 6.48578 8.58756 5.75108 7.89347C5.01638 7.19937 4.61173 6.27676 4.61173 5.29648C4.61173 4.31621 5.01638 3.39359 5.75108 2.6995C6.48578 2.0054 7.46237 1.62312 8.5 1.62312C9.53763 1.62312 10.5142 2.0054 11.2489 2.6995C11.9836 3.39359 12.3883 4.31621 12.3883 5.29648C12.3883 6.27676 11.9836 7.19937 11.2489 7.89347C10.5142 8.58756 9.53763 8.96985 8.5 8.96985Z" fill="#67C1C2"/>
</svg>
