<svg width="204" height="155" viewBox="0 0 204 155" fill="none" xmlns="http://www.w3.org/2000/svg">
<path d="M183.6 0H20.4C9.18 0 0 8.71875 0 19.375V135.625C0 146.281 9.18 155 20.4 155H183.6C194.82 155 204 146.281 204 135.625V19.375C204 8.71875 194.82 0 183.6 0ZM179.52 41.1719L112.812 80.7938C106.182 84.7656 97.818 84.7656 91.188 80.7938L24.48 41.1719C23.4572 40.6266 22.5616 39.8898 21.8473 39.0063C21.133 38.1227 20.6148 37.1107 20.3243 36.0314C20.0337 34.9521 19.9767 33.8281 20.1568 32.7273C20.3369 31.6266 20.7502 30.5719 21.3719 29.6273C21.9935 28.6826 22.8105 27.8676 23.7734 27.2315C24.7363 26.5954 25.8251 26.1515 26.9739 25.9266C28.1226 25.7018 29.3075 25.7006 30.4567 25.9232C31.606 26.1459 32.6957 26.5877 33.66 27.2219L102 67.8125L170.34 27.2219C171.304 26.5877 172.394 26.1459 173.543 25.9232C174.693 25.7006 175.877 25.7018 177.026 25.9266C178.175 26.1515 179.264 26.5954 180.227 27.2315C181.189 27.8676 182.007 28.6826 182.628 29.6273C183.25 30.5719 183.663 31.6266 183.843 32.7273C184.023 33.8281 183.966 34.9521 183.676 36.0314C183.385 37.1107 182.867 38.1227 182.153 39.0063C181.438 39.8898 180.543 40.6266 179.52 41.1719Z" fill="white"/>
</svg>
