<svg width="195" height="195" viewBox="0 0 195 195" fill="none" xmlns="http://www.w3.org/2000/svg">
<path d="M97.5 6.09375C47.0194 6.09375 6.09375 47.0194 6.09375 97.5C6.09375 147.981 47.0194 188.906 97.5 188.906C147.981 188.906 188.906 147.981 188.906 97.5C188.906 47.0194 147.981 6.09375 97.5 6.09375ZM54.8438 50.9529L68.9173 45.7031H79.2188V88.3594H67.1988V54.5634H67.0312L56.8852 58.436L54.8438 50.9529ZM70.7088 149.297C65.127 149.297 60.4195 147.898 57.8906 146.375L59.9503 139.139C61.7358 140.025 65.8643 141.674 69.9776 141.674C75.2152 141.674 77.8751 139.27 77.8751 136.156C77.8751 132.091 73.6247 130.248 69.1763 130.248H65.063V123.328H68.9843C72.3633 123.267 76.6716 122.067 76.6716 118.572C76.6716 116.095 74.554 114.258 70.3036 114.258C66.7875 114.258 63.0673 115.717 61.2757 116.735L59.2221 109.748C61.812 108.164 66.9886 106.641 72.5583 106.641C81.7812 106.641 86.8999 111.275 86.8999 116.918C86.8999 121.302 84.3101 124.73 78.9963 126.509V126.628C84.1821 127.524 88.3594 131.265 88.3594 136.665C88.3594 143.959 81.6593 149.297 70.7088 149.297ZM108.164 82.4271L113.722 77.5186C123.106 69.3255 127.67 64.612 127.795 59.7066C127.795 56.2849 125.684 53.5702 120.726 53.5702C117.024 53.5702 113.789 55.38 111.531 57.0619L108.697 50.0266C111.936 47.6348 116.957 45.7001 122.771 45.7001C132.487 45.7001 137.844 51.2454 137.844 58.8626C137.844 65.8978 132.618 71.5132 126.406 76.9366L122.442 80.1572V80.2882H138.633V88.3594H108.164V82.4271ZM140.156 139.126H134.574V149.297H124.236V139.126H103.594V132.627L121.232 106.641H134.574V131.64H140.156V139.126Z" fill="#FAFAFA"/>
<path d="M120.013 122.201L113.776 131.516V131.64H124.239V122.201C124.239 119.63 124.382 117.012 124.595 114.252H124.315C122.81 117.012 121.588 119.508 120.013 122.201Z" fill="#FAFAFA"/>
</svg>
