<svg width="20" height="22" viewBox="0 0 20 22" fill="none" xmlns="http://www.w3.org/2000/svg">
<path d="M14.4444 16.5V13.2H6.66667V8.8H14.4444V5.5L20 11L14.4444 16.5ZM12.2222 0C12.8116 0 13.3768 0.231785 13.7936 0.644365C14.2103 1.05694 14.4444 1.61652 14.4444 2.2V4.4H12.2222V2.2H2.22222V19.8H12.2222V17.6H14.4444V19.8C14.4444 20.3835 14.2103 20.9431 13.7936 21.3556C13.3768 21.7682 12.8116 22 12.2222 22H2.22222C1.63285 22 1.06762 21.7682 0.650874 21.3556C0.234126 20.9431 0 20.3835 0 19.8V2.2C0 1.61652 0.234126 1.05694 0.650874 0.644365C1.06762 0.231785 1.63285 0 2.22222 0H12.2222Z" fill="#FAFAFA"/>
</svg>
