<svg width="167" height="78" viewBox="0 0 167 78" fill="none" xmlns="http://www.w3.org/2000/svg">
<path d="M36.7773 78C30.0348 78 24.9269 76.36 21.4534 73.0802C18.0481 69.7319 16.3455 64.8121 16.3455 58.3206C16.3455 55.1091 16.8222 51.5217 17.7757 47.5585L28.1959 5.94481C22.3388 7.51642 17.7757 10.318 14.5066 14.3495C11.2375 18.3127 9.60297 22.6859 9.60297 27.4691C9.60297 30.8173 10.4883 34.0631 12.2591 37.2063C8.37706 37.2063 5.34634 36.2497 3.16694 34.3364C1.05565 32.4231 0 29.724 0 26.2392C0 21.7976 1.77076 17.5611 5.31228 13.5296C8.9219 9.4297 13.6893 6.1498 19.6146 3.68988C25.5398 1.22996 31.8056 0 38.4119 0C40.7275 0 42.6344 0.170826 44.1328 0.512482L31.6694 47.866C30.5116 52.1708 29.9327 55.8607 29.9327 58.9356C29.9327 65.4271 32.5888 68.6728 37.9011 68.6728C45.529 68.6728 50.8072 61.6347 53.7358 47.5585L63.9517 0.204989H78.3561L68.4467 47.5585C66.2673 57.6031 62.4874 65.1879 57.107 70.3127C51.7947 75.4376 45.0182 78 36.7773 78Z" fill="white"/>
<path d="M107.964 77.8975C103.809 77.8975 100.745 76.8042 98.7696 74.6176C96.8626 72.3627 95.9091 69.5953 95.9091 66.3154C95.9091 64.8804 96.0794 63.2746 96.42 61.498C96.7605 59.6531 97.101 57.8765 97.4415 56.1682C97.8502 54.4599 98.1226 53.3666 98.2588 52.8883C98.8037 50.4967 99.3145 48.1393 99.7912 45.816C100.268 43.4928 100.506 41.6137 100.506 40.1787C100.506 36.6938 99.2804 34.9514 96.8286 34.9514C95.0578 34.9514 93.4914 35.8397 92.1293 37.6163C90.7671 39.3246 89.6774 41.5795 88.8602 44.3811L81.9133 77.2825H67.2024L78.0313 26.0342H92.7422L91.6185 31.364C95.0238 27.5375 99.008 25.6242 103.571 25.6242C107.045 25.6242 109.803 26.5808 111.846 28.4941C113.889 30.4074 114.911 33.3114 114.911 37.2063C114.911 39.1879 114.672 41.4087 114.196 43.8686C113.719 46.2602 113.038 49.1984 112.152 52.6833C111.608 54.8016 111.097 56.8857 110.62 58.9356C110.211 60.9172 110.007 62.4888 110.007 63.6505C110.007 65.0171 110.314 66.0762 110.927 66.8279C111.54 67.5795 112.595 67.9553 114.094 67.9553C116.137 67.9553 117.771 67.2378 118.997 65.8029C120.223 64.2996 121.449 62.0105 122.675 58.9356H126.966C124.446 66.452 121.517 71.5085 118.18 74.1051C114.911 76.6334 111.505 77.8975 107.964 77.8975Z" fill="white"/>
<path d="M130.223 77.8975C126.954 77.8975 124.297 76.8725 122.254 74.8226C120.279 72.7727 119.292 69.6978 119.292 65.5979C119.292 63.8896 119.564 61.6689 120.109 58.9356L127.056 26.0342H141.767L134.411 60.883C134.207 61.703 134.105 62.5572 134.105 63.4455C134.105 66.452 135.126 67.9553 137.169 67.9553C139.076 67.9553 140.711 67.1695 142.073 65.5979C143.435 63.958 144.525 61.7372 145.342 58.9356L152.289 26.0342H167L159.645 60.883C159.372 61.908 159.236 63.0013 159.236 64.1629C159.236 65.5296 159.542 66.5204 160.155 67.1354C160.836 67.682 161.926 67.9553 163.424 67.9553C164.514 67.9553 165.297 67.887 165.774 67.7503C166.319 67.5453 166.659 67.4087 166.796 67.3403C166.523 70.8252 165.331 73.456 163.22 75.2326C161.109 77.0092 158.521 77.8975 155.456 77.8975C152.596 77.8975 150.28 77.0434 148.509 75.3351C146.807 73.6268 145.785 71.2352 145.444 68.1603C143.129 71.9185 140.677 74.4809 138.089 75.8476C135.569 77.2142 132.947 77.8975 130.223 77.8975Z" fill="white"/>
</svg>
